<svg viewBox="0 0 1857 681" fill="none" xmlns="http://www.w3.org/2000/svg">
<path fill-rule="evenodd" clip-rule="evenodd" d="M1062.43 97.2891H1138.96L1100.57 242.133L1111.76 211.439H1123.28L1178.16 97.2731H1260.66L1207.65 242.582H1175.68L1217.32 128.408H1194.71L1138.57 242.582L1068.48 242.598C1071.58 231.184 1074.66 219.762 1077.73 208.347H1042.56L1026.86 242.598H994.881L1062.43 97.2891ZM1056.73 177.261H1086.36L1099.46 128.48H1079.22L1056.73 177.261Z" fill="white"/>
<path d="M655.849 97.2891H623.876L549.992 184.061L581.667 97.2891H549.695L496.67 242.598H528.65L602.519 155.826L570.86 242.598H602.832L655.849 97.2891Z" fill="white"/>
<path d="M672.935 97.2891H704.923L716.019 150.427L765.897 97.2891H797.877L744.86 242.598H712.872L747.261 148.345L697.681 200.634L686.287 148.345L651.898 242.598H619.926L672.935 97.2891Z" fill="white"/>
<path d="M889.145 97.2891H921.109L868.084 242.598H836.112L867.771 155.826L793.903 242.598H761.922L814.931 97.2891H846.919L815.26 184.061L889.145 97.2891Z" fill="white"/>
<path d="M938.195 97.2891H970.175C963.327 116.113 956.454 134.936 949.565 153.751H985.816L1006.37 97.2891H1038.34L985.335 242.598H953.362L974.447 184.886H938.211L917.151 242.598H885.17L938.195 97.2891Z" fill="white"/>
<path fill-rule="evenodd" clip-rule="evenodd" d="M1277.73 97.2731C1260.07 145.717 1242.41 194.154 1224.72 242.582H1322.85L1356.35 150.588H1290.25L1309.72 97.2731H1277.73ZM1268.07 211.487L1278.9 181.81H1313.01L1302.17 211.487H1268.07Z" fill="white"/>
<path d="M1423.8 97.2731H1391.82L1338.82 242.582H1370.79L1391.84 184.886H1428.09L1407.04 242.582H1439.02L1492.02 97.2731H1460.04L1439.49 153.735H1403.25L1423.8 97.2731Z" fill="white"/>
<path fill-rule="evenodd" clip-rule="evenodd" d="M1592.61 97.2731H1516.06L1448.51 242.582H1480.49L1496.18 208.331H1531.36L1522.11 242.582H1554.09L1592.61 97.2731ZM1539.99 177.245H1510.36L1532.85 128.464H1553.11L1539.99 177.245Z" fill="white"/>
<path fill-rule="evenodd" clip-rule="evenodd" d="M687.331 288.159H483.462L375.63 583.719H579.499L687.331 288.159ZM463.75 520.376L525.414 351.494H599.154L537.49 520.376H463.75Z" fill="white"/>
<path d="M925.822 288.159H721.945L614.113 583.719H817.982L851.528 491.668H786.468L775.989 520.376H702.241L763.906 351.494H837.646L827.176 380.201H892.236L925.822 288.159Z" fill="white"/>
<path d="M1160.07 288.159H956.205L848.373 583.719H1052.24L1085.82 491.668H1020.75L1010.28 520.376H936.541C957.064 464.09 977.602 407.788 998.157 351.494H1071.9L1061.42 380.201H1126.49L1160.07 288.159Z" fill="white"/>
<path d="M1406.47 288.159H1341.4L1191.12 464.651L1255.51 288.167H1190.44L1082.62 583.719H1147.69L1297.97 407.235L1233.58 583.719H1298.64L1406.47 288.159Z" fill="white"/>
<path fill-rule="evenodd" clip-rule="evenodd" d="M1539 583.703L1646.83 288.159L1442.95 288.167C1419.09 353.616 1395.22 419.058 1371.33 484.491H1412.11L1320.38 583.719H1394.12L1478.52 486.59H1509.35L1473.93 583.703H1539ZM1484.92 351.494H1558.66L1532.51 423.263H1458.73L1484.92 351.494Z" fill="white"/>
<path fill-rule="evenodd" clip-rule="evenodd" d="M1664.71 242.582L1717.73 97.2731H1617.58L1582.35 193.801H1602.39L1557.32 242.582H1593.55L1635.06 194.835H1650.21L1632.74 242.582H1664.71ZM1638.15 128.408H1674.38L1661.51 163.7H1625.27L1638.15 128.408Z" fill="white"/>
<path d="M316.752 184.886L295.699 242.598H263.719L316.744 97.2891H348.716L328.161 153.751H342.863L391.383 97.2891H425.074L363.409 167.449L374.16 242.598H338.968L331.453 184.886H316.752Z" fill="white"/>
<path fill-rule="evenodd" clip-rule="evenodd" d="M433.52 97.2891H533.725L496.614 199.008H428.398L412.484 242.598H380.512L433.52 97.2891ZM454.139 128.424L439.751 167.873H475.995L490.383 128.424H454.139Z" fill="white"/>
<path fill-rule="evenodd" clip-rule="evenodd" d="M247.098 288.159H450.96L375.469 495.04H236.725L204.335 583.719H139.266L247.098 288.159ZM289.051 351.494L259.777 431.706H333.517L362.791 351.494H289.051Z" fill="white"/>
<path fill-rule="evenodd" clip-rule="evenodd" d="M0 681L248.455 0H1857L1608.56 681H0ZM69.6372 632.363H1574.37L1787.39 48.6366H282.595L229.338 194.57L211.666 243.207L69.6372 632.363Z" fill="white"/>
</svg>
