<svg width="112" height="48" viewBox="0 0 112 48" fill="none" xmlns="http://www.w3.org/2000/svg">
<path d="M22.9994 0.648438C21.1529 0.743353 18.875 1.91684 17.5807 3.5649C16.3813 4.98862 15.3631 7.30108 15.622 9.46685C17.7015 9.64805 19.7896 8.37965 21.0839 6.77473C22.3695 5.12667 23.2151 2.90913 22.9994 0.648438ZM40.7053 5.06627V38.2001H45.9515V27.1555H53.1304C59.7227 27.1555 64.4512 22.5737 64.4512 16.1109C64.4512 9.64805 59.809 5.06627 53.303 5.06627H40.7053ZM45.9515 9.48411H52.026C56.5474 9.48411 59.205 11.926 59.205 16.1109C59.205 20.2957 56.5733 22.7376 52.026 22.7376H45.9515V9.48411ZM22.7578 10.5886C19.7206 10.5886 17.5462 12.2453 16.1311 12.2453C14.6901 12.2453 12.5416 10.6145 10.0565 10.6145C7.01928 10.6145 4.04242 12.5127 2.48064 15.2912C-0.746451 20.848 1.64367 29.071 4.75859 33.601C6.27722 35.8358 8.12374 38.2001 10.6088 38.2001C12.8867 38.1138 13.6547 36.8195 16.4072 36.8195C19.177 36.8195 19.9967 38.2001 22.4817 38.2001C24.9667 38.2001 26.4681 35.9221 27.9954 33.6787C29.7383 31.1419 30.4459 28.6655 30.489 28.536C30.4459 28.4929 25.6829 26.6636 25.6311 21.15C25.5966 16.5423 29.3932 14.342 29.5658 14.2126C27.4173 11.0286 23.8623 10.5886 23.0339 10.5886H22.7578ZM76.488 13.9019C70.9916 13.9019 66.9276 16.9824 66.7722 21.219H71.4317C71.82 19.2085 73.7269 17.8884 76.3327 17.8884C79.4994 17.8884 81.2942 19.338 81.2942 22.0042V23.8421L74.8141 24.1872C68.8086 24.541 65.5556 26.957 65.5556 31.1505C65.5556 35.3871 68.9121 38.2001 73.7269 38.2001C76.9799 38.2001 79.9999 36.5865 81.3632 34.0238H81.4667V37.9498H86.2642V21.6677C86.2642 16.9392 82.4159 13.9019 76.488 13.9019ZM88.197 13.9019L97.05 38.0879L96.5754 39.5547C95.7729 42.057 94.4786 43.0062 92.1662 43.0062C91.7779 43.0062 91.0272 42.9717 90.6821 42.9285V46.9149C91.0272 46.9926 92.2438 47.0357 92.6235 47.0357C97.723 47.0357 100.122 45.1202 102.21 39.3045L111.391 13.9019H106.075L99.9233 33.532H99.8197L93.6589 13.9019H88.197ZM81.2942 27.1555L81.2769 29.071C81.2769 32.1342 78.6279 34.3172 75.1161 34.3172C72.3549 34.3172 70.6033 33.0143 70.6033 31.0211C70.6033 28.9675 72.2945 27.7767 75.5303 27.5783L81.2942 27.1555Z" fill="white"/>
</svg>
