<svg width="57" height="47" viewBox="0 0 57 47" fill="none" xmlns="http://www.w3.org/2000/svg">
<path fill-rule="evenodd" clip-rule="evenodd" d="M29.1617 6.28136C29.1296 8.85169 31.4199 10.2861 33.145 11.1389C34.9177 12.014 35.513 12.5751 35.5063 13.3575C35.4928 14.5552 34.0922 15.0836 32.7814 15.1041C30.4945 15.1401 29.1651 14.4779 28.108 13.9769L27.2843 17.8872C28.3448 18.3831 30.3085 18.8156 32.345 18.8344C37.125 18.8344 40.2523 16.4408 40.2693 12.7295C40.2879 8.01958 33.847 7.75873 33.891 5.65339C33.9062 5.01513 34.5066 4.33387 35.8226 4.1606C36.4737 4.07317 38.2717 4.00617 40.3099 4.95842L41.1099 1.17515C40.0139 0.770166 38.6048 0.382324 36.851 0.382324C32.3518 0.382324 29.1872 2.80851 29.1617 6.28136ZM48.7974 0.708312C47.9246 0.708312 47.1889 1.22486 46.8608 2.01754L40.0325 18.5564H44.809L45.7596 15.8917H51.5966L52.1481 18.5564H56.358L52.6842 0.708312H48.7974ZM49.4655 5.52982L50.844 12.2318H47.0688L49.4655 5.52982ZM23.3704 0.708312L19.6053 18.5564H24.1569L27.9202 0.708312H23.3704ZM16.6369 0.708312L11.8992 12.8564L9.98277 2.52709C9.75789 1.37414 8.86989 0.708312 7.88374 0.708312H0.138854L0.0305653 1.22658C1.62055 1.57656 3.42697 2.14111 4.52127 2.74508C5.191 3.11393 5.38223 3.43648 5.60205 4.3133L9.23179 18.5564H14.0423L21.4168 0.708312H16.6369Z" fill="white"/>
<path d="M47.4642 35.1725C47.4642 41.576 42.2709 46.7693 35.8674 46.7693C29.4639 46.7693 24.2705 41.576 24.2705 35.1725C24.2705 28.769 29.4639 23.5757 35.8674 23.5757C42.2709 23.5757 47.4642 28.769 47.4642 35.1725Z" fill="#FF9800"/>
<path d="M34.2107 35.1725C34.2107 41.576 29.0173 46.7693 22.6139 46.7693C16.2104 46.7693 11.017 41.576 11.017 35.1725C11.017 28.769 16.2104 23.5757 22.6139 23.5757C29.0173 23.5757 34.2107 28.769 34.2107 35.1725Z" fill="#D50000"/>
<path d="M24.2705 35.1729C24.2705 39.1107 26.2379 42.5859 29.2406 44.6826C32.2434 42.5859 34.2107 39.1107 34.2107 35.1729C34.2107 31.235 32.2434 27.7598 29.2406 25.6631C26.2379 27.7598 24.2705 31.235 24.2705 35.1729Z" fill="#FF3D00"/>
</svg>
