<svg width="118" height="47" viewBox="0 0 118 47" fill="none" xmlns="http://www.w3.org/2000/svg">
<path d="M55.8715 23.0408V36.6459H51.5596V3.06153H62.9955C65.754 3.00797 68.4054 4.05246 70.414 5.98075C72.4227 7.77513 73.5475 10.373 73.4939 13.0512C73.5475 15.7561 72.4227 18.354 70.414 20.1751C68.4054 22.0766 65.9415 23.0408 63.0222 23.0408H55.8715ZM55.8715 7.18593V18.9164H63.1026C64.7095 18.9699 66.2628 18.3272 67.3609 17.1756C69.6373 14.9794 69.6641 11.3639 67.468 9.08744L67.3609 8.98032C66.2628 7.80192 64.7095 7.15915 63.1026 7.21272L55.8715 7.18593ZM83.43 12.9172C86.617 12.9172 89.1345 13.7743 90.9825 15.4615C92.8304 17.1756 93.741 19.5056 93.741 22.4784V36.6192H89.6166V33.4321H89.4291C87.6347 36.0567 85.2779 37.369 82.3051 37.369C79.7877 37.369 77.6451 36.6192 75.9579 35.1194C74.2974 33.7267 73.36 31.6645 73.4136 29.4952C73.4136 27.1116 74.3242 25.2369 76.1185 23.8174C77.9129 22.398 80.3233 21.7017 83.3229 21.7017C85.8939 21.7017 87.9829 22.1838 89.6434 23.0943V22.1034C89.6434 20.6304 89.0006 19.2378 87.8758 18.3004C86.7241 17.2827 85.2511 16.7203 83.7246 16.7203C81.3142 16.7203 79.4127 17.738 77.9933 19.7734L74.1903 17.3898C76.2525 14.417 79.3324 12.9172 83.43 12.9172ZM77.8594 29.6023C77.8594 30.7272 78.395 31.7716 79.2788 32.4144C80.2429 33.1643 81.4213 33.566 82.6265 33.5393C84.4477 33.5393 86.1885 32.8161 87.474 31.5306C88.8935 30.1915 89.6166 28.6114 89.6166 26.7902C88.2775 25.719 86.4028 25.1833 83.9924 25.1833C82.2516 25.1833 80.7786 25.6118 79.6002 26.4421C78.4486 27.2991 77.8594 28.3436 77.8594 29.6023ZM117.416 13.6671L103.007 46.7695H98.5617L103.918 35.1997L94.4373 13.6939H99.1241L105.953 30.1915H106.061L112.729 13.6939L117.416 13.6671Z" fill="white"/>
<path d="M38.4365 20.0952C38.4365 18.7829 38.3294 17.4706 38.1151 16.1851H19.9303V23.6036H30.3484C29.9199 25.9872 28.5272 28.1298 26.4918 29.4688V34.2896H32.7052C36.3475 30.9418 38.4365 25.9872 38.4365 20.0952Z" fill="#4285F4"/>
<path d="M19.9303 38.9488C25.126 38.9488 29.5182 37.2348 32.7052 34.2888L26.4918 29.4681C24.751 30.6465 22.5281 31.316 19.9303 31.316C14.8953 31.316 10.637 27.9147 9.11044 23.3618H2.70958V28.3432C5.97696 34.8244 12.6456 38.9488 19.9303 38.9488Z" fill="#34A853"/>
<path d="M9.11043 23.3625C8.30698 20.979 8.30698 18.3811 9.11043 15.9708V11.0161H2.70958C1.3495 13.6969 0.640701 16.6606 0.640701 19.6666C0.640701 22.6727 1.3495 25.6364 2.70958 28.3172L9.11043 23.3625Z" fill="#FBBC04"/>
<path d="M19.9303 8.01631C22.6888 7.96275 25.3402 9.00724 27.3221 10.9087L32.8124 5.41847C29.3307 2.12431 24.7242 0.329926 19.9303 0.38349C12.6456 0.38349 5.97696 4.50789 2.70958 11.0159L9.11044 15.9973C10.637 11.4176 14.8953 8.01631 19.9303 8.01631Z" fill="#EA4335"/>
</svg>
