<svg width="48" height="47" viewBox="0 0 48 47" fill="none" xmlns="http://www.w3.org/2000/svg">
<path d="M18.4621 10.3886L18.4671 10.3936C18.603 9.81984 19.0913 9.40207 19.7003 9.40207H37.0603C37.0804 9.40207 37.1005 9.39201 37.1257 9.39201C36.7532 3.23623 31.589 0.382324 27.0339 0.382324H9.67387C9.0598 0.382324 8.5766 0.815193 8.4407 1.38396L8.43567 1.37893L0.845387 36.2197H0.86552C0.845387 36.3053 0.815186 36.3808 0.815186 36.4714C0.815186 37.1861 1.38899 37.7499 2.10372 37.7499H12.5026L18.4621 10.3886Z" fill="#1565C0"/>
<path d="M37.1258 9.39209C37.1912 10.5246 37.1207 11.7527 36.8288 13.1067C35.1779 20.8329 29.2133 24.8545 21.8395 24.8545C21.8395 24.8545 17.3649 24.8545 16.2827 24.8545C15.6082 24.8545 15.2911 25.2471 15.1452 25.5491L12.9053 35.9178L12.5127 37.76H12.5026L10.8769 45.2295H10.892C10.8769 45.3151 10.8416 45.3906 10.8416 45.4812C10.8416 46.1959 11.4205 46.7697 12.1302 46.7697H21.5778L21.5979 46.7546C22.2069 46.7496 22.6901 46.3117 22.816 45.7429L22.8361 45.7228L25.1716 34.8759C25.1716 34.8759 25.3326 33.8441 26.4249 33.8441C27.5121 33.8441 31.8055 33.8441 31.8055 33.8441C39.1794 33.8441 45.2093 29.8426 46.8602 22.1164C48.7175 13.4037 42.5064 9.42732 37.1258 9.39209Z" fill="#039BE5"/>
<path d="M19.7003 9.40195C19.0913 9.40195 18.603 9.81972 18.4671 10.3935L18.4621 10.3885L15.1451 25.5489C15.2911 25.2469 15.6082 24.8543 16.2776 24.8543C17.3648 24.8543 21.7338 24.8543 21.7338 24.8543C29.1127 24.8543 35.1778 20.8327 36.8288 13.1115C37.1207 11.7525 37.1912 10.5244 37.1257 9.39692C37.1006 9.39188 37.0804 9.40195 37.0603 9.40195H19.7003Z" fill="#283593"/>
</svg>
