<svg width="45" height="47" viewBox="0 0 45 47" fill="none" xmlns="http://www.w3.org/2000/svg">
<path d="M20.7315 0.648438C9.32019 0.648438 0.0358887 9.93274 0.0358887 21.3441C0.0358887 32.7554 9.32019 42.0397 20.7315 42.0397C23.1172 42.0397 24.8129 41.7667 26.3039 41.5258C27.6085 41.3176 28.8406 41.1198 30.3892 41.1198C37.8985 41.1198 42.53 46.2721 42.5767 46.3261C42.7564 46.531 43.0113 46.6386 43.2667 46.6386C43.4391 46.6386 43.6115 46.5919 43.7625 46.4912C44.1431 46.2471 44.2905 45.7585 44.1036 45.3453C44.003 45.1153 41.5061 39.7258 31.4852 37.4083L31.2121 37.3293C28.7366 36.7183 26.7389 35.7195 25.2728 34.3649C23.3794 32.6153 23.0201 30.8511 23.0165 30.8403C22.9303 30.3694 22.4957 30.0464 22.0285 30.0859C21.554 30.129 21.1911 30.5241 21.1911 31.0022C21.1911 31.0952 21.1984 32.9242 21.5182 34.6525C21.2415 34.6702 20.9829 34.6811 20.7315 34.6811C13.3765 34.6811 7.39416 28.6987 7.39416 21.3441C7.39416 13.9891 13.3765 8.00671 20.7315 8.00671C28.0862 8.00671 34.0686 13.9891 34.0686 21.3441C34.0686 21.8939 34.0327 22.4469 33.9643 22.9967C32.2291 22.7236 30.5044 22.7236 30.3892 22.7236C29.854 22.7236 29.4697 23.1836 29.4697 23.6616C29.4802 24.1611 29.8862 24.5634 30.3892 24.5634C30.4074 24.5634 32.3189 24.5812 34.0327 25.6844C36.8711 27.5061 37.5501 30.2619 37.5574 30.2869C37.6436 30.6642 37.9561 30.9482 38.344 30.9949C38.7286 31.0344 39.1024 30.8403 39.2748 30.4882C40.7047 27.6068 41.4268 24.5276 41.4268 21.3441C41.4268 9.93274 32.1425 0.648438 20.7315 0.648438ZM34.6542 30.0822C34.4278 30.0714 34.2518 30.1684 34.1548 30.3372C33.9606 30.6787 34.1044 31.3542 34.4995 31.9434C34.895 32.5399 35.2326 32.8416 35.502 32.8416C35.7501 32.8416 35.9942 32.5327 35.8794 31.7888C35.811 31.3433 35.5524 30.3731 34.8914 30.1362C34.8088 30.1036 34.7259 30.0895 34.6542 30.0822ZM31.6467 32.8416C31.2338 32.8416 30.8887 32.9496 30.6768 33.1578C30.1343 33.6859 30.3784 34.6203 31.2085 35.1987C31.575 35.45 32.0962 35.601 32.6061 35.601C33.1309 35.601 33.5655 35.4464 33.835 35.1628C34.3163 34.6489 34.0399 33.9195 33.1273 33.3052C32.6746 33.0032 32.1498 32.8416 31.6467 32.8416Z" fill="#FF7A00"/>
</svg>
