<svg width="47" height="48" viewBox="0 0 47 48" fill="none" xmlns="http://www.w3.org/2000/svg">
<path d="M22.9901 0.654245C16.4837 0.799951 9.69701 3.65533 4.98636 9.989C-2.6428 20.2452 -0.630296 34.4284 9.56718 42.2783C13.8999 45.6105 18.8388 47.0362 23.5415 47.0362C28.6857 47.0362 33.5341 45.3112 37.012 42.5106L37.0593 42.5618L38.5715 41.2345L33.4397 35.3896L31.3049 37.3469C30.1746 38.3792 29.0835 39.3717 28.0199 40.3956C26.3068 38.4379 24.5658 36.4965 22.8289 34.5586C21.99 33.6209 21.1511 32.6875 20.3157 31.7501C20.2685 31.6949 20.2212 31.6397 20.174 31.581L22.628 29.2926L16.3181 22.1712L18.7876 19.8554L12.3753 12.7185L21.1034 4.83686L24.3256 8.31873L29.6664 3.58069C29.7096 3.59617 29.7529 3.60808 29.7962 3.62396L32.8529 6.97164L35.7082 4.35646C35.7082 4.35646 34.9519 3.65533 34.2075 3.246C34.0935 3.18287 33.9871 3.16699 33.8887 3.16699C30.6943 1.46139 26.8896 0.571267 22.9901 0.654245ZM37.386 5.91636L34.838 8.24806L37.1379 10.8001L39.6943 8.50017L37.386 5.91636ZM29.6231 6.60162L25.6803 10.1859L29.2292 14.1283L33.1677 10.5758L29.6231 6.60162ZM20.8517 8.05511L15.5344 12.8757L20.3316 18.2129L25.6648 13.3998L20.8517 8.05511ZM40.9032 14.1716L38.3631 16.4878L40.6789 19.0518L43.2389 16.7241L40.9032 14.1716ZM33.4397 14.9792L29.5008 18.5515L33.0458 22.5059L36.9962 18.9375L33.4397 14.9792ZM24.814 17.5237L19.4927 22.3526L24.2978 27.6934L29.6072 22.8684L24.814 17.5237ZM44.4482 22.4193L41.8922 24.7197L44.212 27.2836L46.776 24.9797L44.4482 22.4193ZM36.9843 23.7823L33.0458 27.3428L36.5984 31.305L40.5412 27.7247L36.9843 23.7823ZM28.7409 27.122L23.4236 31.9312L28.2089 37.2842L33.55 32.4632L28.7409 27.122ZM40.6158 32.1872L36.6928 35.7636L40.2458 39.6985L44.1961 36.138L40.6158 32.1872Z" fill="#2D9CDB"/>
</svg>
