<svg width="36" height="48" viewBox="0 0 36 48" fill="none" xmlns="http://www.w3.org/2000/svg">
<path d="M34.0391 19.0108H25.2907V1.61587C25.2907 1.2422 25.074 0.906207 24.7399 0.743726C24.4019 0.585051 24.0031 0.626527 23.7111 0.860925C23.5702 0.973939 9.78706 11.9705 5.6595 15.0736C0.575076 18.9012 0.0170288 20.7132 0.0170288 23.6691V42.204C0.0170288 44.8692 2.1964 47.0362 4.87717 47.0362H34.0391C34.5742 47.0362 35.0109 46.602 35.0109 46.0697V19.9773C35.0109 19.445 34.5742 19.0108 34.0391 19.0108ZM15.5092 19.2711C16.5533 18.1124 18.0835 17.7011 18.9229 18.3578C19.7619 19.0146 19.595 20.4868 18.5466 21.6493C17.5025 22.8083 15.9723 23.2197 15.1333 22.5629C14.2939 21.9061 14.4612 20.4339 15.5092 19.2711ZM6.82153 42.204L24.8386 30.8905C25.1196 30.7132 25.2907 30.4073 25.2907 30.0751V20.9434H30.1508V34.7147C30.1508 35.1451 29.866 35.5225 29.4523 35.6432L6.82153 42.204Z" fill="#FFA800"/>
</svg>
