<svg width="66" height="47" viewBox="0 0 66 47" fill="none" xmlns="http://www.w3.org/2000/svg">
<path d="M42.6352 0.382324C29.7173 0.382324 19.4417 10.8048 19.4417 23.576C19.4417 36.4939 29.8641 46.7696 42.6352 46.7696C55.4064 46.7696 65.8289 36.3472 65.8289 23.576C65.8289 10.8048 55.4064 0.382324 42.6352 0.382324ZM42.6352 32.2369C37.9378 32.2369 33.9744 28.2734 33.9744 23.576C33.9744 18.8785 37.9378 14.915 42.6352 14.915C47.3327 14.915 51.2961 18.8785 51.2961 23.576C51.1496 28.2734 47.3327 32.2369 42.6352 32.2369Z" fill="white"/>
<path d="M19.2938 7.13502V40.8978H11.0732L0.503967 7.13502H19.2938Z" fill="white"/>
</svg>
