<svg width="1306" height="600" viewBox="0 0 1306 600" fill="none" xmlns="http://www.w3.org/2000/svg">
<path d="M-86.7036 49.8998L21.7533 251.967L-328.237 189.349L-282.817 163.126L-64.8424 201.971L-132.124 76.1232L-86.7036 49.8998Z" fill="url(#paint0_linear_1_13150)"/>
<path d="M305.521 88.1281L-44.4694 25.5105L63.9874 227.578L109.408 201.354L42.1262 75.5065L260.101 114.352L305.521 88.1281Z" fill="url(#paint1_linear_1_13150)"/>
<path d="M104.946 111.776L226.986 133.465L142.513 182.236L104.946 111.776Z" fill="url(#paint2_linear_1_13150)"/>
<path d="M239.298 -138.325L347.755 63.742L-2.23545 1.12439L43.1848 -25.099L261.16 13.746L193.878 -112.102L239.298 -138.325Z" fill="url(#paint3_linear_1_13150)"/>
<path d="M198.334 -22.5283L160.767 -92.9883L76.2939 -44.2177L198.334 -22.5283Z" fill="url(#paint4_linear_1_13150)"/>
<path d="M631.529 -100.098L281.538 -162.715L389.995 39.3519L435.415 13.1285L368.134 -112.719L586.109 -73.8744L631.529 -100.098Z" fill="url(#paint5_linear_1_13150)"/>
<path d="M111.103 540.537L219.56 742.605L-130.431 679.987L-85.0105 653.764L132.964 692.608L65.6828 566.761L111.103 540.537Z" fill="url(#paint6_linear_1_13150)"/>
<path d="M70.1428 656.334L32.5756 585.874L-51.8976 634.645L70.1428 656.334Z" fill="url(#paint7_linear_1_13150)"/>
<path d="M503.33 578.764L153.339 516.147L261.796 718.214L307.216 691.991L239.935 566.143L457.91 604.988L503.33 578.764Z" fill="url(#paint8_linear_1_13150)"/>
<path d="M302.76 602.427L424.8 624.117L340.327 672.888L302.76 602.427Z" fill="url(#paint9_linear_1_13150)"/>
<path d="M437.109 352.327L545.566 554.394L195.575 491.777L240.995 465.553L458.97 504.398L391.689 378.551L437.109 352.327Z" fill="url(#paint10_linear_1_13150)"/>
<path d="M396.149 468.123L358.581 397.663L274.108 446.434L396.149 468.123Z" fill="url(#paint11_linear_1_13150)"/>
<path d="M829.334 390.554L479.343 327.936L587.8 530.003L633.22 503.78L565.939 377.932L783.913 416.777L829.334 390.554Z" fill="url(#paint12_linear_1_13150)"/>
<path d="M628.764 414.197L750.804 435.887L666.331 484.657L628.764 414.197Z" fill="url(#paint13_linear_1_13150)"/>
<path d="M763.113 164.097L871.57 366.164L521.579 303.546L566.999 277.323L784.974 316.168L717.693 190.32L763.113 164.097Z" fill="url(#paint14_linear_1_13150)"/>
<path d="M722.155 279.893L684.587 209.433L600.114 258.204L722.155 279.893Z" fill="url(#paint15_linear_1_13150)"/>
<path d="M1155.35 202.329L805.357 139.711L913.814 341.778L959.234 315.555L891.952 189.707L1109.93 228.552L1155.35 202.329Z" fill="url(#paint16_linear_1_13150)"/>
<path d="M954.772 225.986L1076.81 247.675L992.339 296.446L954.772 225.986Z" fill="url(#paint17_linear_1_13150)"/>
<path d="M1089.13 -24.1151L1197.59 177.952L847.595 115.335L893.015 89.1112L1110.99 127.956L1043.71 2.10834L1089.13 -24.1151Z" fill="url(#paint18_linear_1_13150)"/>
<path d="M1048.16 91.6826L1010.59 21.2226L926.118 69.9932L1048.16 91.6826Z" fill="url(#paint19_linear_1_13150)"/>
<path d="M1481.35 14.117L1131.36 -48.5006L1239.82 153.567L1285.24 127.343L1217.96 1.49544L1435.93 40.3404L1481.35 14.117Z" fill="url(#paint20_linear_1_13150)"/>
<path d="M1280.78 37.7606L1402.82 59.4501L1318.34 108.221L1280.78 37.7606Z" fill="url(#paint21_linear_1_13150)"/>
<path d="M1415.13 -212.34L1523.59 -10.273L1173.6 -72.8906L1219.02 -99.114L1436.99 -60.2691L1369.71 -186.117L1415.13 -212.34Z" fill="url(#paint22_linear_1_13150)"/>
<path d="M1353.16 692.976L1003.17 630.358L1111.62 832.426L1157.04 806.202L1089.76 680.354L1307.74 719.199L1353.16 692.976Z" fill="url(#paint23_linear_1_13150)"/>
<path d="M1286.94 466.523L1395.39 668.591L1045.4 605.973L1090.82 579.75L1308.8 618.595L1241.52 492.747L1286.94 466.523Z" fill="url(#paint24_linear_1_13150)"/>
<path d="M1245.98 582.32L1208.41 511.86L1123.94 560.631L1245.98 582.32Z" fill="url(#paint25_linear_1_13150)"/>
<path d="M1679.16 504.765L1329.17 442.148L1437.63 644.215L1483.05 617.992L1415.76 492.144L1633.74 530.989L1679.16 504.765Z" fill="url(#paint26_linear_1_13150)"/>
<path d="M78.4216 521.674L-271.569 459.057L-163.112 661.124L-117.692 634.901L-184.973 509.053L33.0014 547.898L78.4216 521.674Z" fill="url(#paint27_linear_1_13150)"/>
<path d="M12.2007 295.216L120.658 497.283L-229.333 434.666L-183.913 408.442L34.0619 447.287L-33.2195 321.44L12.2007 295.216Z" fill="url(#paint28_linear_1_13150)"/>
<path d="M-28.7693 411.013L-66.3365 340.553L-150.81 389.324L-28.7693 411.013Z" fill="url(#paint29_linear_1_13150)"/>
<path d="M404.427 333.449L54.4368 270.831L162.894 472.898L208.314 446.675L141.032 320.827L359.007 359.672L404.427 333.449Z" fill="url(#paint30_linear_1_13150)"/>
<path d="M203.858 357.092L325.898 378.781L241.425 427.552L203.858 357.092Z" fill="url(#paint31_linear_1_13150)"/>
<path d="M338.205 106.991L446.661 309.059L96.6708 246.441L142.091 220.218L360.066 259.063L292.784 133.215L338.205 106.991Z" fill="url(#paint32_linear_1_13150)"/>
<path d="M297.246 222.802L259.679 152.342L175.206 201.113L297.246 222.802Z" fill="url(#paint33_linear_1_13150)"/>
<path d="M730.431 145.238L380.441 82.62L488.898 284.687L534.318 258.464L467.036 132.616L685.011 171.461L730.431 145.238Z" fill="url(#paint34_linear_1_13150)"/>
<path d="M529.864 168.881L651.904 190.571L567.431 239.341L529.864 168.881Z" fill="url(#paint35_linear_1_13150)"/>
<path d="M664.209 -81.2207L772.665 120.847L422.675 58.2289L468.095 32.0055L686.07 70.8505L618.788 -54.9973L664.209 -81.2207Z" fill="url(#paint36_linear_1_13150)"/>
<path d="M623.25 34.5766L585.683 -35.8835L501.21 12.8872L623.25 34.5766Z" fill="url(#paint37_linear_1_13150)"/>
<path d="M1056.44 -42.9923L706.447 -105.61L814.903 96.4574L860.324 70.234L793.042 -55.6138L1011.02 -16.7689L1056.44 -42.9923Z" fill="url(#paint38_linear_1_13150)"/>
<path d="M855.867 -19.3445L977.908 2.34491L893.435 51.1155L855.867 -19.3445Z" fill="url(#paint39_linear_1_13150)"/>
<path d="M990.216 -269.446L1098.67 -67.3788L748.683 -129.996L794.103 -156.22L1012.08 -117.375L944.796 -243.223L990.216 -269.446Z" fill="url(#paint40_linear_1_13150)"/>
<path d="M536.015 597.643L644.472 799.711L294.481 737.093L339.902 710.87L557.876 749.715L490.595 623.867L536.015 597.643Z" fill="url(#paint41_linear_1_13150)"/>
<path d="M928.248 635.871L578.257 573.253L686.714 775.32L732.134 749.097L664.853 623.249L882.828 662.094L928.248 635.871Z" fill="url(#paint42_linear_1_13150)"/>
<path d="M862.025 409.432L970.482 611.5L620.491 548.882L665.911 522.659L883.886 561.504L816.605 435.656L862.025 409.432Z" fill="url(#paint43_linear_1_13150)"/>
<path d="M821.061 525.229L783.494 454.769L699.02 503.539L821.061 525.229Z" fill="url(#paint44_linear_1_13150)"/>
<path d="M1254.25 447.659L904.261 385.042L1012.72 587.109L1058.14 560.886L990.857 435.038L1208.83 473.883L1254.25 447.659Z" fill="url(#paint45_linear_1_13150)"/>
<path d="M1053.68 471.303L1175.72 492.993L1091.24 541.763L1053.68 471.303Z" fill="url(#paint46_linear_1_13150)"/>
<path d="M1188.03 221.202L1296.49 423.269L946.499 360.652L991.919 334.428L1209.89 373.273L1142.61 247.425L1188.03 221.202Z" fill="url(#paint47_linear_1_13150)"/>
<path d="M1147.06 337.003L1109.5 266.543L1025.02 315.314L1147.06 337.003Z" fill="url(#paint48_linear_1_13150)"/>
<path d="M1580.26 259.434L1230.27 196.817L1338.73 398.884L1384.15 372.661L1316.86 246.813L1534.84 285.658L1580.26 259.434Z" fill="url(#paint49_linear_1_13150)"/>
<path d="M1514.04 32.9759L1622.5 235.043L1272.5 172.426L1317.93 146.202L1535.9 185.047L1468.62 59.1993L1514.04 32.9759Z" fill="url(#paint50_linear_1_13150)"/>
<defs>
<linearGradient id="paint0_linear_1_13150" x1="22.5663" y1="267.993" x2="-49.065" y2="95.8345" gradientUnits="userSpaceOnUse">
<stop stop-color="#F1F1F1"/>
<stop offset="1" stop-color="#F1F1F1" stop-opacity="0"/>
</linearGradient>
<linearGradient id="paint1_linear_1_13150" x1="-72.2275" y1="25.0411" x2="64.5193" y2="195.733" gradientUnits="userSpaceOnUse">
<stop stop-color="#F1F1F1"/>
<stop offset="1" stop-color="#F1F1F1" stop-opacity="0"/>
</linearGradient>
<linearGradient id="paint2_linear_1_13150" x1="95.2603" y1="111.625" x2="142.811" y2="171.069" gradientUnits="userSpaceOnUse">
<stop stop-color="#F1F1F1"/>
<stop offset="1" stop-color="#F1F1F1" stop-opacity="0"/>
</linearGradient>
<linearGradient id="paint3_linear_1_13150" x1="348.568" y1="79.7681" x2="276.937" y2="-92.3906" gradientUnits="userSpaceOnUse">
<stop stop-color="#F1F1F1"/>
<stop offset="1" stop-color="#F1F1F1" stop-opacity="0"/>
</linearGradient>
<linearGradient id="paint4_linear_1_13150" x1="198.596" y1="-16.9364" x2="173.615" y2="-76.8844" gradientUnits="userSpaceOnUse">
<stop stop-color="#F1F1F1"/>
<stop offset="1" stop-color="#F1F1F1" stop-opacity="0"/>
</linearGradient>
<linearGradient id="paint5_linear_1_13150" x1="253.78" y1="-163.185" x2="390.527" y2="7.50704" gradientUnits="userSpaceOnUse">
<stop stop-color="#F1F1F1"/>
<stop offset="1" stop-color="#F1F1F1" stop-opacity="0"/>
</linearGradient>
<linearGradient id="paint6_linear_1_13150" x1="220.373" y1="758.631" x2="148.742" y2="586.472" gradientUnits="userSpaceOnUse">
<stop stop-color="#F1F1F1"/>
<stop offset="1" stop-color="#F1F1F1" stop-opacity="0"/>
</linearGradient>
<linearGradient id="paint7_linear_1_13150" x1="70.4045" y1="661.926" x2="45.4237" y2="601.978" gradientUnits="userSpaceOnUse">
<stop stop-color="#F1F1F1"/>
<stop offset="1" stop-color="#F1F1F1" stop-opacity="0"/>
</linearGradient>
<linearGradient id="paint8_linear_1_13150" x1="125.581" y1="515.677" x2="262.328" y2="686.369" gradientUnits="userSpaceOnUse">
<stop stop-color="#F1F1F1"/>
<stop offset="1" stop-color="#F1F1F1" stop-opacity="0"/>
</linearGradient>
<linearGradient id="paint9_linear_1_13150" x1="293.075" y1="602.276" x2="340.625" y2="661.72" gradientUnits="userSpaceOnUse">
<stop stop-color="#F1F1F1"/>
<stop offset="1" stop-color="#F1F1F1" stop-opacity="0"/>
</linearGradient>
<linearGradient id="paint10_linear_1_13150" x1="546.379" y1="570.421" x2="474.747" y2="398.262" gradientUnits="userSpaceOnUse">
<stop stop-color="#F1F1F1"/>
<stop offset="1" stop-color="#F1F1F1" stop-opacity="0"/>
</linearGradient>
<linearGradient id="paint11_linear_1_13150" x1="396.41" y1="473.715" x2="371.43" y2="413.767" gradientUnits="userSpaceOnUse">
<stop stop-color="#F1F1F1"/>
<stop offset="1" stop-color="#F1F1F1" stop-opacity="0"/>
</linearGradient>
<linearGradient id="paint12_linear_1_13150" x1="451.585" y1="327.467" x2="588.332" y2="498.159" gradientUnits="userSpaceOnUse">
<stop stop-color="#F1F1F1"/>
<stop offset="1" stop-color="#F1F1F1" stop-opacity="0"/>
</linearGradient>
<linearGradient id="paint13_linear_1_13150" x1="619.079" y1="414.046" x2="666.629" y2="473.49" gradientUnits="userSpaceOnUse">
<stop stop-color="#F1F1F1"/>
<stop offset="1" stop-color="#F1F1F1" stop-opacity="0"/>
</linearGradient>
<linearGradient id="paint14_linear_1_13150" x1="872.383" y1="382.19" x2="800.751" y2="210.031" gradientUnits="userSpaceOnUse">
<stop stop-color="#F1F1F1"/>
<stop offset="1" stop-color="#F1F1F1" stop-opacity="0"/>
</linearGradient>
<linearGradient id="paint15_linear_1_13150" x1="722.416" y1="285.485" x2="697.435" y2="225.537" gradientUnits="userSpaceOnUse">
<stop stop-color="#F1F1F1"/>
<stop offset="1" stop-color="#F1F1F1" stop-opacity="0"/>
</linearGradient>
<linearGradient id="paint16_linear_1_13150" x1="777.599" y1="139.242" x2="914.346" y2="309.933" gradientUnits="userSpaceOnUse">
<stop stop-color="#F1F1F1"/>
<stop offset="1" stop-color="#F1F1F1" stop-opacity="0"/>
</linearGradient>
<linearGradient id="paint17_linear_1_13150" x1="945.086" y1="225.835" x2="992.637" y2="285.279" gradientUnits="userSpaceOnUse">
<stop stop-color="#F1F1F1"/>
<stop offset="1" stop-color="#F1F1F1" stop-opacity="0"/>
</linearGradient>
<linearGradient id="paint18_linear_1_13150" x1="1198.4" y1="193.978" x2="1126.77" y2="21.8196" gradientUnits="userSpaceOnUse">
<stop stop-color="#F1F1F1"/>
<stop offset="1" stop-color="#F1F1F1" stop-opacity="0"/>
</linearGradient>
<linearGradient id="paint19_linear_1_13150" x1="1048.42" y1="97.2744" x2="1023.44" y2="37.3265" gradientUnits="userSpaceOnUse">
<stop stop-color="#F1F1F1"/>
<stop offset="1" stop-color="#F1F1F1" stop-opacity="0"/>
</linearGradient>
<linearGradient id="paint20_linear_1_13150" x1="1103.6" y1="-48.97" x2="1240.35" y2="121.722" gradientUnits="userSpaceOnUse">
<stop stop-color="#F1F1F1"/>
<stop offset="1" stop-color="#F1F1F1" stop-opacity="0"/>
</linearGradient>
<linearGradient id="paint21_linear_1_13150" x1="1271.09" y1="37.6095" x2="1318.64" y2="97.0536" gradientUnits="userSpaceOnUse">
<stop stop-color="#F1F1F1"/>
<stop offset="1" stop-color="#F1F1F1" stop-opacity="0"/>
</linearGradient>
<linearGradient id="paint22_linear_1_13150" x1="1524.4" y1="5.75308" x2="1452.77" y2="-166.406" gradientUnits="userSpaceOnUse">
<stop stop-color="#F1F1F1"/>
<stop offset="1" stop-color="#F1F1F1" stop-opacity="0"/>
</linearGradient>
<linearGradient id="paint23_linear_1_13150" x1="975.407" y1="629.889" x2="1112.15" y2="800.581" gradientUnits="userSpaceOnUse">
<stop stop-color="#F1F1F1"/>
<stop offset="1" stop-color="#F1F1F1" stop-opacity="0"/>
</linearGradient>
<linearGradient id="paint24_linear_1_13150" x1="1396.21" y1="684.617" x2="1324.58" y2="512.458" gradientUnits="userSpaceOnUse">
<stop stop-color="#F1F1F1"/>
<stop offset="1" stop-color="#F1F1F1" stop-opacity="0"/>
</linearGradient>
<linearGradient id="paint25_linear_1_13150" x1="1246.24" y1="587.912" x2="1221.26" y2="527.964" gradientUnits="userSpaceOnUse">
<stop stop-color="#F1F1F1"/>
<stop offset="1" stop-color="#F1F1F1" stop-opacity="0"/>
</linearGradient>
<linearGradient id="paint26_linear_1_13150" x1="1301.41" y1="441.678" x2="1438.16" y2="612.37" gradientUnits="userSpaceOnUse">
<stop stop-color="#F1F1F1"/>
<stop offset="1" stop-color="#F1F1F1" stop-opacity="0"/>
</linearGradient>
<linearGradient id="paint27_linear_1_13150" x1="-299.327" y1="458.587" x2="-162.58" y2="629.279" gradientUnits="userSpaceOnUse">
<stop stop-color="#F1F1F1"/>
<stop offset="1" stop-color="#F1F1F1" stop-opacity="0"/>
</linearGradient>
<linearGradient id="paint28_linear_1_13150" x1="121.471" y1="513.31" x2="49.8392" y2="341.151" gradientUnits="userSpaceOnUse">
<stop stop-color="#F1F1F1"/>
<stop offset="1" stop-color="#F1F1F1" stop-opacity="0"/>
</linearGradient>
<linearGradient id="paint29_linear_1_13150" x1="-28.5076" y1="416.605" x2="-53.4884" y2="356.657" gradientUnits="userSpaceOnUse">
<stop stop-color="#F1F1F1"/>
<stop offset="1" stop-color="#F1F1F1" stop-opacity="0"/>
</linearGradient>
<linearGradient id="paint30_linear_1_13150" x1="26.6788" y1="270.362" x2="163.426" y2="441.053" gradientUnits="userSpaceOnUse">
<stop stop-color="#F1F1F1"/>
<stop offset="1" stop-color="#F1F1F1" stop-opacity="0"/>
</linearGradient>
<linearGradient id="paint31_linear_1_13150" x1="194.172" y1="356.941" x2="241.723" y2="416.385" gradientUnits="userSpaceOnUse">
<stop stop-color="#F1F1F1"/>
<stop offset="1" stop-color="#F1F1F1" stop-opacity="0"/>
</linearGradient>
<linearGradient id="paint32_linear_1_13150" x1="447.475" y1="325.085" x2="375.843" y2="152.926" gradientUnits="userSpaceOnUse">
<stop stop-color="#F1F1F1"/>
<stop offset="1" stop-color="#F1F1F1" stop-opacity="0"/>
</linearGradient>
<linearGradient id="paint33_linear_1_13150" x1="297.508" y1="228.394" x2="272.527" y2="168.446" gradientUnits="userSpaceOnUse">
<stop stop-color="#F1F1F1"/>
<stop offset="1" stop-color="#F1F1F1" stop-opacity="0"/>
</linearGradient>
<linearGradient id="paint34_linear_1_13150" x1="352.683" y1="82.1505" x2="489.43" y2="252.842" gradientUnits="userSpaceOnUse">
<stop stop-color="#F1F1F1"/>
<stop offset="1" stop-color="#F1F1F1" stop-opacity="0"/>
</linearGradient>
<linearGradient id="paint35_linear_1_13150" x1="520.178" y1="168.73" x2="567.729" y2="228.174" gradientUnits="userSpaceOnUse">
<stop stop-color="#F1F1F1"/>
<stop offset="1" stop-color="#F1F1F1" stop-opacity="0"/>
</linearGradient>
<linearGradient id="paint36_linear_1_13150" x1="773.478" y1="136.873" x2="701.847" y2="-35.286" gradientUnits="userSpaceOnUse">
<stop stop-color="#F1F1F1"/>
<stop offset="1" stop-color="#F1F1F1" stop-opacity="0"/>
</linearGradient>
<linearGradient id="paint37_linear_1_13150" x1="623.512" y1="40.1684" x2="598.531" y2="-19.7795" gradientUnits="userSpaceOnUse">
<stop stop-color="#F1F1F1"/>
<stop offset="1" stop-color="#F1F1F1" stop-opacity="0"/>
</linearGradient>
<linearGradient id="paint38_linear_1_13150" x1="678.689" y1="-106.079" x2="815.435" y2="64.6126" gradientUnits="userSpaceOnUse">
<stop stop-color="#F1F1F1"/>
<stop offset="1" stop-color="#F1F1F1" stop-opacity="0"/>
</linearGradient>
<linearGradient id="paint39_linear_1_13150" x1="846.182" y1="-19.4956" x2="893.733" y2="39.9484" gradientUnits="userSpaceOnUse">
<stop stop-color="#F1F1F1"/>
<stop offset="1" stop-color="#F1F1F1" stop-opacity="0"/>
</linearGradient>
<linearGradient id="paint40_linear_1_13150" x1="1099.49" y1="-51.3526" x2="1027.85" y2="-223.511" gradientUnits="userSpaceOnUse">
<stop stop-color="#F1F1F1"/>
<stop offset="1" stop-color="#F1F1F1" stop-opacity="0"/>
</linearGradient>
<linearGradient id="paint41_linear_1_13150" x1="645.285" y1="815.737" x2="573.654" y2="643.578" gradientUnits="userSpaceOnUse">
<stop stop-color="#F1F1F1"/>
<stop offset="1" stop-color="#F1F1F1" stop-opacity="0"/>
</linearGradient>
<linearGradient id="paint42_linear_1_13150" x1="550.499" y1="572.784" x2="687.246" y2="743.475" gradientUnits="userSpaceOnUse">
<stop stop-color="#F1F1F1"/>
<stop offset="1" stop-color="#F1F1F1" stop-opacity="0"/>
</linearGradient>
<linearGradient id="paint43_linear_1_13150" x1="971.295" y1="627.526" x2="899.663" y2="455.367" gradientUnits="userSpaceOnUse">
<stop stop-color="#F1F1F1"/>
<stop offset="1" stop-color="#F1F1F1" stop-opacity="0"/>
</linearGradient>
<linearGradient id="paint44_linear_1_13150" x1="821.322" y1="530.821" x2="796.342" y2="470.873" gradientUnits="userSpaceOnUse">
<stop stop-color="#F1F1F1"/>
<stop offset="1" stop-color="#F1F1F1" stop-opacity="0"/>
</linearGradient>
<linearGradient id="paint45_linear_1_13150" x1="876.503" y1="384.572" x2="1013.25" y2="555.264" gradientUnits="userSpaceOnUse">
<stop stop-color="#F1F1F1"/>
<stop offset="1" stop-color="#F1F1F1" stop-opacity="0"/>
</linearGradient>
<linearGradient id="paint46_linear_1_13150" x1="1043.99" y1="471.152" x2="1091.54" y2="530.596" gradientUnits="userSpaceOnUse">
<stop stop-color="#F1F1F1"/>
<stop offset="1" stop-color="#F1F1F1" stop-opacity="0"/>
</linearGradient>
<linearGradient id="paint47_linear_1_13150" x1="1297.3" y1="439.295" x2="1225.67" y2="267.137" gradientUnits="userSpaceOnUse">
<stop stop-color="#F1F1F1"/>
<stop offset="1" stop-color="#F1F1F1" stop-opacity="0"/>
</linearGradient>
<linearGradient id="paint48_linear_1_13150" x1="1147.33" y1="342.595" x2="1122.35" y2="282.647" gradientUnits="userSpaceOnUse">
<stop stop-color="#F1F1F1"/>
<stop offset="1" stop-color="#F1F1F1" stop-opacity="0"/>
</linearGradient>
<linearGradient id="paint49_linear_1_13150" x1="1202.51" y1="196.347" x2="1339.26" y2="367.039" gradientUnits="userSpaceOnUse">
<stop stop-color="#F1F1F1"/>
<stop offset="1" stop-color="#F1F1F1" stop-opacity="0"/>
</linearGradient>
<linearGradient id="paint50_linear_1_13150" x1="1623.31" y1="251.069" x2="1551.68" y2="78.9106" gradientUnits="userSpaceOnUse">
<stop stop-color="#F1F1F1"/>
<stop offset="1" stop-color="#F1F1F1" stop-opacity="0"/>
</linearGradient>
</defs>
</svg>
