<svg viewBox="0 0 129 106" fill="none" xmlns="http://www.w3.org/2000/svg">
  <path fill-rule="evenodd" clip-rule="evenodd" d="M101.074 38.5552H69.8365L64.5443 52.8814L57.6561 43.3578L71.6147 33.7365L76.9529 19.2785H66.5485L62.9895 28.9131L49.0254 38.5552L56.1545 19.2846H45.7374L27.927 67.4603H38.3325L45.456 48.1898L52.3027 57.826L48.7381 67.4603H59.1429L52.0193 86.7311H62.448L69.5771 67.4603H90.3863L101.074 38.5552ZM83.5282 57.826H73.1234L76.688 48.1898H87.0927L83.5282 57.826Z" fill="white"/>
  <path fill-rule="evenodd" clip-rule="evenodd" d="M129 19.2806L97.7564 19.2706L104.885 0H32.0446L0 86.7232H31.2204L24.1088 106H76.1327L83.2494 86.728H104.061L129 19.2806ZM83.7919 28.9067H115.013L97.1954 77.0886H76.4045L72.8523 86.7232L69.2878 96.3591H38.0674L45.1965 77.0886H13.9759L38.9085 9.64073H90.9344L87.3565 19.2706L83.7919 28.9067Z" fill="white"/>
</svg>
